<svg xmlns="http://www.w3.org/2000/svg" width="256" height="256" shape-rendering="geometricPrecision"><g transform="scale(1,1)" stroke-width=".05%"><g fill="#1a181b"><path d=" M 192.70 52.58 C 197.72 46.96 205.63 46.70 212.57 45.64 C 209.41 47.14 206.10 48.26 202.81 49.43 C 198.80 50.81 195.55 53.61 192.13 56.01 C 187.74 59.10 183.36 62.21 179.20 65.60 C 184.30 66.26 188.82 63.74 193.35 61.87 C 190.72 64.02 187.75 65.70 184.68 67.13 C 184.49 67.50 184.11 68.23 183.92 68.60 C 185.08 69.00 186.25 69.39 187.43 69.79 C 186.85 72.91 186.66 76.24 184.91 78.99 C 182.99 82.10 180.86 85.10 179.21 88.37 C 176.23 90.62 173.28 92.92 170.49 95.40 C 174.01 93.86 177.48 92.22 180.96 90.57 C 182.60 91.19 184.25 91.82 185.90 92.45 C 185.31 95.89 184.67 99.32 184.05 102.76 C 186.44 101.30 188.88 99.94 191.37 98.66 C 187.95 104.61 182.21 108.46 176.59 112.11 C 185.98 107.68 195.76 104.21 205.17 99.82 C 196.24 105.17 186.99 110.17 179.04 116.95 C 184.41 116.41 188.64 112.87 193.27 110.48 C 197.66 108.14 201.87 105.49 206.20 103.03 C 198.77 108.36 190.50 112.32 182.67 117.00 C 182.64 117.86 182.58 119.58 182.54 120.44 C 185.22 119.21 187.90 117.98 190.48 116.55 C 197.67 112.36 205.70 109.96 213.13 106.27 C 217.87 103.89 222.90 102.17 228.09 101.11 C 227.82 104.21 226.58 107.05 224.39 109.27 C 225.69 109.80 226.98 110.34 228.28 110.89 C 227.01 112.12 225.75 113.36 224.49 114.60 C 224.53 115.94 224.57 117.28 224.61 118.63 C 220.25 120.90 215.78 122.98 211.55 125.49 C 207.10 128.10 203.49 131.83 199.87 135.44 C 199.28 135.64 198.70 135.85 198.12 136.06 C 195.76 140.12 191.33 141.63 187.14 143.02 C 186.37 144.36 186.00 146.21 184.37 146.80 C 179.80 148.82 175.38 151.16 170.99 153.53 C 171.52 154.41 172.07 155.28 172.61 156.16 C 168.07 157.73 164.07 160.39 160.22 163.20 C 153.58 167.43 147.65 172.64 141.47 177.49 C 141.01 177.01 140.54 176.53 140.08 176.06 C 134.87 180.74 130.09 186.37 123.60 189.28 C 125.87 185.13 129.37 181.92 132.60 178.54 C 122.27 185.41 113.99 194.79 104.12 202.22 C 102.17 203.76 101.41 200.87 100.79 199.59 C 103.34 196.84 105.84 194.05 108.43 191.34 C 108.45 190.39 108.46 189.45 108.47 188.51 C 114.01 185.22 116.62 179.22 119.61 173.83 C 118.59 174.51 117.58 175.20 116.56 175.88 C 116.15 175.41 115.33 174.46 114.92 173.98 C 113.23 175.65 111.50 177.26 109.73 178.83 C 110.55 179.45 111.36 180.07 112.18 180.70 C 109.28 183.11 106.37 185.51 103.65 188.12 C 103.61 189.19 103.56 190.27 103.52 191.35 C 102.78 192.08 102.04 192.81 101.30 193.55 C 101.48 191.95 101.65 190.35 101.84 188.75 C 100.29 190.38 98.72 192.00 97.11 193.56 C 97.50 191.65 97.29 189.36 98.91 187.95 C 103.76 182.76 109.65 178.43 113.26 172.17 C 109.47 174.42 106.23 177.43 103.25 180.66 C 103.41 179.09 103.58 177.53 103.75 175.97 C 100.22 179.87 96.57 183.70 92.14 186.59 C 95.81 181.21 99.33 175.57 104.46 171.43 C 104.45 170.45 104.44 169.48 104.43 168.51 C 107.98 165.11 111.57 161.74 114.67 157.91 C 108.09 162.84 102.40 168.80 96.39 174.38 C 94.68 175.97 92.64 177.12 90.61 178.24 C 92.17 176.25 93.84 174.35 95.59 172.53 C 94.98 171.89 94.38 171.25 93.78 170.62 C 95.26 170.59 96.74 170.55 98.22 170.53 C 108.28 160.21 119.16 150.73 130.50 141.83 C 128.14 142.89 125.80 143.96 123.46 145.04 C 130.20 137.47 139.34 132.71 146.56 125.68 C 137.30 130.76 129.57 138.11 120.57 143.59 C 115.78 146.20 113.51 152.35 107.67 153.11 C 109.84 150.33 112.22 147.72 114.57 145.09 C 106.65 151.76 98.05 157.65 90.77 165.05 C 87.48 166.37 85.13 169.06 83.21 171.95 C 82.02 171.48 80.83 171.01 79.64 170.53 C 79.62 171.47 79.60 172.41 79.59 173.35 C 77.92 174.52 76.26 175.70 74.60 176.87 C 74.62 177.74 74.63 178.62 74.63 179.50 C 73.40 179.55 72.16 179.59 70.92 179.64 C 67.72 185.95 63.70 191.88 58.56 196.78 C 59.61 194.63 60.69 192.49 61.79 190.36 C 59.50 192.17 57.19 193.96 54.84 195.69 C 58.48 191.02 62.66 186.81 66.24 182.10 C 66.56 179.68 67.12 177.30 67.83 174.96 C 64.33 178.78 60.53 182.31 56.96 186.06 C 55.95 185.59 54.95 185.12 53.95 184.66 C 51.17 188.30 47.63 191.21 44.12 194.10 C 35.76 201.83 28.44 210.59 20.83 219.04 C 24.22 214.55 27.60 210.05 30.28 205.10 C 32.70 200.39 37.60 197.83 40.59 193.58 C 42.90 190.45 44.98 187.14 46.80 183.70 C 45.81 183.37 44.10 184.07 43.86 182.63 C 45.00 181.11 46.89 180.69 48.71 180.85 C 50.79 179.48 52.95 178.09 54.43 176.06 C 55.76 173.85 56.17 171.24 56.88 168.80 C 52.00 170.76 47.20 172.94 42.78 175.79 C 44.42 173.28 45.85 170.65 47.37 168.07 C 48.51 166.26 49.42 164.31 50.10 162.28 C 46.15 165.09 42.86 169.01 38.05 170.40 C 41.86 165.25 45.18 159.17 51.45 156.68 C 50.95 156.00 50.45 155.33 49.95 154.66 C 53.21 150.70 56.78 147.02 60.43 143.42 C 64.59 139.40 67.56 134.37 71.55 130.20 C 70.78 130.35 69.25 130.65 68.48 130.80 C 73.28 124.85 79.40 120.19 84.48 114.51 C 90.56 107.63 97.45 101.55 103.60 94.75 C 106.39 91.88 109.70 89.48 111.93 86.11 C 112.98 85.21 114.03 84.31 115.09 83.43 C 113.82 83.46 111.27 83.53 110.00 83.56 C 113.09 81.63 116.25 79.81 119.35 77.91 C 113.06 80.19 107.73 84.39 101.56 86.93 C 103.62 85.00 105.77 83.19 107.90 81.35 C 106.07 81.30 104.24 81.25 102.41 81.18 C 106.03 77.68 111.14 77.32 115.62 75.58 C 112.80 75.96 110.02 76.55 107.24 77.08 C 110.73 74.40 114.44 72.04 118.23 69.81 C 110.51 73.69 102.51 77.04 95.08 81.46 C 95.24 80.52 95.41 79.57 95.58 78.62 C 96.21 78.61 97.48 78.58 98.11 78.57 C 102.38 73.73 108.57 71.47 113.41 67.35 C 112.83 66.82 111.68 65.78 111.11 65.26 C 116.98 62.68 122.29 59.06 127.76 55.75 C 130.89 53.84 133.82 51.44 137.40 50.42 C 140.64 49.49 144.00 49.19 147.32 48.70 C 148.13 49.31 148.93 49.92 149.74 50.54 C 151.31 50.44 152.88 50.34 154.45 50.23 C 151.25 51.62 148.53 53.80 145.66 55.73 C 143.12 56.95 140.18 56.80 137.44 57.12 C 137.36 58.73 137.31 60.35 137.24 61.97 C 143.47 60.22 149.30 57.06 155.80 56.34 C 149.13 62.56 140.05 64.97 132.58 70.01 C 143.18 66.53 152.51 59.88 163.37 57.06 C 163.54 56.59 163.86 55.65 164.02 55.18 C 161.86 55.37 159.70 55.54 157.54 55.68 C 163.42 52.58 170.13 51.53 175.91 48.22 C 178.82 46.45 182.27 46.51 185.55 46.42 C 182.07 48.19 178.28 49.65 175.71 52.76 C 176.88 52.46 179.23 51.85 180.40 51.55 C 177.39 54.02 174.60 56.75 172.28 59.88 C 179.01 58.51 185.60 56.44 192.40 55.37 C 192.47 54.67 192.62 53.28 192.70 52.58 M 153.63 150.13 C 149.47 152.30 144.93 153.96 141.37 157.11 C 138.67 159.86 136.38 162.98 133.55 165.61 C 136.61 163.48 139.89 161.69 143.22 160.00 C 148.31 157.63 151.29 152.16 156.99 150.84 C 159.97 147.75 163.40 145.16 167.14 143.07 C 162.56 145.28 158.23 147.95 153.63 150.13 Z"/><path d=" M 187.57 149.50 C 192.39 145.26 197.51 141.17 203.52 138.75 C 198.48 142.73 192.99 146.07 187.57 149.50 Z"/></g></g><g transform="scale(1,1)" stroke-width=".05%"><g fill="#c3c0bf"><path d=" M 123.95 46.94 C 124.95 41.74 125.33 36.41 127.06 31.37 C 126.31 48.91 127.44 66.46 127.29 84.01 C 127.28 99.69 127.39 115.36 127.36 131.03 C 127.31 133.39 127.75 135.72 128.08 138.05 C 127.85 167.67 128.09 197.29 127.97 226.90 C 126.62 224.52 126.64 220.36 122.84 221.09 C 125.09 216.62 123.28 211.64 124.02 206.90 C 124.94 199.95 126.70 193.01 125.67 185.96 C 126.12 181.76 122.84 178.52 119.29 176.95 C 120.09 176.52 121.69 175.68 122.49 175.25 C 117.04 169.61 105.26 170.11 102.34 178.16 C 100.25 182.29 102.32 186.77 104.70 190.25 C 100.86 188.69 97.14 185.96 95.57 182.02 C 95.47 179.98 95.88 177.97 96.04 175.96 C 94.24 178.09 92.61 180.36 90.88 182.54 C 91.03 178.91 91.20 175.29 91.35 171.66 C 88.47 172.48 85.63 173.44 82.76 174.27 C 83.67 171.41 84.73 168.61 85.78 165.80 C 81.94 166.98 77.90 167.06 73.98 167.86 C 75.13 165.17 76.29 162.49 77.60 159.87 C 73.41 159.81 69.24 159.35 65.14 158.48 C 67.12 156.22 69.43 154.30 71.93 152.66 C 68.98 150.98 66.19 149.02 63.16 147.50 C 62.91 147.16 62.43 146.48 62.18 146.14 C 65.97 146.54 69.70 145.76 73.38 144.91 C 67.88 138.57 62.37 132.09 58.07 124.87 C 62.48 128.54 67.52 131.30 72.33 134.41 C 67.76 127.37 63.27 120.25 59.43 112.80 C 63.08 115.34 65.96 118.80 69.34 121.67 C 74.49 125.95 80.04 129.74 85.92 132.94 C 81.49 129.07 76.28 125.76 73.29 120.54 C 68.36 111.68 65.50 101.67 64.84 91.57 C 68.02 97.69 70.16 104.35 74.05 110.11 C 79.70 120.23 86.99 129.75 96.84 136.08 C 93.30 131.96 88.79 128.75 85.76 124.19 C 79.97 115.73 74.93 106.41 73.27 96.18 C 72.24 89.22 71.02 82.22 70.83 75.17 C 75.87 88.50 80.12 102.28 87.33 114.66 C 89.04 117.71 91.37 120.34 93.59 123.01 C 87.08 112.34 81.16 100.80 80.27 88.10 C 80.17 77.22 82.29 66.50 83.84 55.78 C 84.20 67.09 85.08 78.51 88.26 89.42 C 89.93 95.39 91.97 101.25 94.10 107.06 C 97.16 114.46 99.00 122.27 101.64 129.82 C 101.73 123.70 99.49 117.94 97.72 112.19 C 93.93 101.44 90.29 90.47 89.23 79.05 C 88.83 74.62 89.76 70.23 90.85 65.96 C 92.28 60.53 93.22 54.95 95.12 49.65 C 94.70 61.60 94.97 73.64 97.32 85.40 C 99.31 93.05 101.48 100.66 103.74 108.24 C 105.90 114.48 105.32 121.19 105.19 127.67 C 108.66 121.18 106.47 113.86 104.71 107.24 C 103.48 101.50 100.98 95.90 101.49 89.92 C 101.79 80.87 105.47 72.25 104.77 63.13 C 104.40 66.09 103.68 68.99 102.80 71.84 C 101.26 77.02 101.00 82.47 99.44 87.65 C 97.05 74.03 101.69 60.59 105.62 47.73 C 107.27 42.70 108.44 37.37 111.59 33.01 C 111.57 58.37 111.57 83.75 111.62 109.11 C 109.16 102.51 107.27 95.42 108.15 88.32 L 109.46 87.47 C 108.55 87.35 107.43 87.76 107.62 88.93 C 107.21 93.29 106.63 97.80 108.06 102.04 C 108.72 106.22 110.74 110.02 111.55 114.15 C 111.60 124.40 111.66 134.67 111.58 144.93 C 110.60 144.58 109.62 144.22 108.65 143.87 C 106.56 145.44 104.64 147.49 104.45 150.25 C 103.91 158.51 111.24 167.65 120.08 166.00 C 124.09 165.52 125.58 159.78 122.59 157.21 C 120.03 156.28 117.44 157.61 115.37 159.05 C 114.09 157.87 112.87 156.63 111.69 155.36 C 113.56 155.13 115.42 154.86 117.27 154.49 C 120.89 156.52 123.51 152.55 122.24 149.21 C 121.08 149.01 119.91 148.81 118.75 148.60 C 121.58 139.72 121.05 130.29 121.72 121.11 C 121.69 109.45 122.01 97.80 121.86 86.15 C 121.77 84.52 121.39 82.93 121.09 81.34 C 120.33 81.47 118.80 81.74 118.04 81.88 C 119.13 70.09 122.27 58.64 123.95 46.94 Z"/></g><g fill="#9d8e6c"><path d=" M 129.08 52.97 C 129.20 45.94 128.57 38.87 129.65 31.89 C 131.51 48.49 135.75 64.70 137.87 81.25 C 136.01 81.03 134.23 81.80 134.29 83.89 C 133.59 96.26 134.31 108.65 134.17 121.03 C 134.72 130.13 134.40 139.44 137.08 148.26 C 135.70 148.87 134.00 149.10 133.18 150.51 C 133.25 152.09 133.77 153.85 135.17 154.76 C 138.18 154.88 141.18 155.06 144.19 155.32 C 143.05 156.52 141.90 157.70 140.73 158.86 C 138.49 157.63 136.02 156.40 133.39 157.08 C 131.37 158.73 132.01 161.44 131.94 163.72 C 134.32 166.11 137.77 166.76 140.98 165.80 C 147.09 163.60 151.53 157.49 151.77 151.01 C 151.71 147.28 148.65 142.89 144.46 144.34 C 144.64 134.89 144.54 125.44 144.53 115.99 C 144.45 111.63 146.43 107.65 147.61 103.56 C 149.68 97.87 149.01 91.64 147.87 85.83 C 147.75 88.90 147.99 91.98 147.85 95.06 C 147.49 99.72 145.89 104.16 144.11 108.45 C 144.49 103.31 144.59 98.15 144.54 93.00 C 144.56 73.29 144.52 53.56 144.50 33.85 C 148.25 38.46 148.99 44.51 150.98 49.93 C 154.59 62.01 158.74 74.63 156.49 87.37 C 154.97 79.22 153.10 71.16 151.16 63.11 C 150.24 74.26 155.99 84.87 154.08 96.03 C 152.55 103.02 150.10 109.81 149.04 116.90 C 148.46 120.58 149.16 124.32 150.88 127.61 C 150.96 122.44 150.37 117.21 151.34 112.09 C 154.41 99.69 159.30 87.65 160.37 74.82 C 161.44 66.57 160.84 58.25 161.19 49.96 C 162.26 53.58 163.09 57.26 163.88 60.95 C 165.15 66.92 167.21 72.88 166.63 79.07 C 165.56 91.60 161.11 103.49 157.20 115.35 C 155.68 120.12 154.09 124.99 154.29 130.07 C 156.61 123.94 158.06 117.53 160.35 111.39 C 163.41 103.34 166.40 95.25 168.54 86.90 C 170.97 77.36 171.86 67.52 172.23 57.71 C 174.10 67.40 175.41 77.22 175.63 87.09 C 175.14 100.21 168.91 112.06 162.35 123.09 C 170.77 114.24 174.90 102.47 179.34 91.34 C 181.56 86.16 182.81 80.61 185.23 75.53 C 185.20 82.65 183.73 89.67 182.52 96.67 C 180.81 106.69 175.86 115.83 170.16 124.13 C 167.16 128.54 162.79 131.74 159.47 135.88 C 168.89 129.93 175.88 120.93 181.33 111.34 C 185.47 105.23 187.89 98.23 191.21 91.70 C 190.16 101.98 187.50 112.27 182.19 121.21 C 179.11 126.06 174.13 129.15 170.00 132.99 C 179.99 128.10 188.10 120.40 196.30 113.07 C 192.75 120.11 188.58 126.83 184.53 133.59 C 189.18 131.15 193.48 128.14 197.85 125.26 C 193.11 132.12 188.04 138.78 182.56 145.06 C 186.29 145.96 190.10 146.45 193.94 146.41 C 190.69 148.61 187.35 150.69 183.94 152.64 C 186.04 154.28 188.19 155.86 190.12 157.70 C 190.03 157.88 189.85 158.23 189.76 158.41 C 186.09 159.43 182.24 159.55 178.47 159.86 C 179.57 162.50 180.69 165.13 181.81 167.76 C 177.88 167.10 173.93 166.63 170.04 165.75 C 171.16 168.55 172.19 171.39 173.14 174.26 C 170.26 173.34 167.40 172.39 164.49 171.56 C 164.68 175.13 164.90 178.70 165.09 182.27 C 163.38 180.14 161.72 177.98 160.04 175.83 C 159.99 178.16 160.66 180.60 159.97 182.89 C 158.22 186.47 154.60 188.56 151.29 190.50 C 153.71 186.49 155.68 181.41 153.22 176.93 C 149.38 169.90 138.73 169.74 133.47 175.21 C 134.43 175.80 135.40 176.40 136.37 177.00 C 134.06 178.37 131.54 179.96 130.66 182.66 C 128.01 194.39 133.59 205.97 131.75 217.74 C 132.25 218.86 132.75 219.99 133.24 221.12 C 132.52 221.15 131.06 221.21 130.33 221.24 C 129.58 223.14 128.81 225.03 127.97 226.90 C 128.09 197.29 127.85 167.67 128.08 138.05 C 129.26 132.44 128.63 126.69 128.77 121.01 C 128.89 98.33 128.65 75.65 129.08 52.97 Z"/></g></g></svg>